Coordinates
version=1
nRows=49
nColumns=13
inDegrees=yes

Units are S.I. units (second, meters, Newtons, ...)
If the header above contains a line with 'inDegrees', this indicates whether rotational values are in degrees (yes) or radians (no).

endheader
time	bJoint_3	seatpos	hipangle	kneeangle	footangle	lbackangle	uarmleft_out	uarmleft_trn	uarmleft_up	uarmright_out	uarmright_trn	uarmright_up
      1.48000000	     -0.00000000	     -0.16701628	     59.72902147	     69.21302873	     38.94205021	     -2.31872506	     -5.46377831	    -65.71611813	     25.37735566	     -2.33409242	    -61.99360488	     30.97140722
      1.49000000	      0.00000000	     -0.17424530	     58.93187324	     70.76515369	     39.69702693	     -1.55168429	     -5.40890329	    -66.99948658	     24.07574485	     -2.33834221	    -63.30613966	     29.80209965
      1.50000000	      0.00000000	     -0.18209164	     58.08467100	     72.41686992	     40.50154092	     -0.81590383	     -5.67138450	    -68.65841470	     22.77421740	     -2.26348621	    -64.47208552	     28.68412926
      1.51000000	      0.00000000	     -0.18916251	     57.33626715	     73.87784272	     41.21410986	      0.04964547	     -5.87604726	    -70.44275622	     21.31535353	     -2.32239725	    -66.28577630	     27.14703330
      1.52000000	      0.00000000	     -0.19706954	     56.51524340	     75.48265869	     41.99790209	      0.80080704	     -5.96686711	    -72.28869265	     19.70196620	     -2.26585955	    -67.66085674	     25.89390786
      1.53000000	     -0.00000000	     -0.20515271	     55.69223385	     77.09360562	     42.78583947	      1.58762621	     -6.31822514	    -74.39415412	     18.18424882	     -2.19069259	    -69.26436474	     24.43645158
      1.54000000	      0.00000000	     -0.21312847	     54.89535886	     78.65561150	     43.55097036	      2.34111812	     -6.53513646	    -76.79193062	     16.33228785	     -2.20445009	    -71.12973421	     22.87122450
      1.55000000	     -0.00000000	     -0.22133589	     54.09019403	     80.23615343	     44.32634746	      3.13649169	     -7.17120502	    -80.13392066	     14.34627684	     -2.30067439	    -73.15754702	     21.31645775
      1.56000000	      0.00000000	     -0.23002622	     53.25315029	     81.88179666	     45.13494694	      3.88638837	     -7.64248029	    -84.06790667	     12.20834788	     -2.37532719	    -75.35746535	     19.63606804
      1.57000000	     -0.00000000	     -0.23835603	     52.46496589	     83.43381956	     45.89878545	      4.66744218	     -8.09748609	    -90.09743542	     10.36700243	     -2.66378814	    -78.08987509	     17.76838578
      1.58000000	      0.00000000	     -0.24711130	     51.65063198	     85.03991433	     46.69054630	      5.44778661	     -7.05311627	    -97.44878809	     10.00974942	     -2.93438551	    -80.93517838	     15.73548221
      1.59000000	     -0.00000000	     -0.25593555	     50.84375270	     86.63399768	     47.47775038	      6.20017744	     -4.23170296	   -102.26829213	     11.28568467	     -3.34451655	    -84.95261093	     13.48433879
      1.60000000	     -0.00000000	     -0.26398121	     50.11959949	     88.06702069	     48.18662018	      7.02889655	     -0.88346978	   -106.91000182	     13.25898848	     -3.25821266	    -90.35799083	     11.80735912
      1.61000000	      0.00000000	     -0.27311294	     49.31037989	     89.67115256	     48.98153245	      7.80093717	      1.78265530	   -109.88602629	     14.56559451	     -1.93921943	    -97.08269838	     11.54339899
      1.62000000	     -0.00000000	     -0.28211200	     48.52549775	     91.22995811	     49.75545586	      8.56580214	      4.85297140	   -113.16391395	     16.16886187	      0.79237573	   -102.06906750	     12.56233805
      1.63000000	     -0.00000000	     -0.29117954	     47.74668647	     92.77968154	     50.52636801	      9.34361138	      7.76802091	   -115.91601267	     17.41317205	      3.76627990	   -106.15366584	     13.91322016
      1.64000000	      0.00000000	     -0.30131975	     46.88940471	     94.48914902	     51.37855373	     10.06347254	     10.20362140	   -118.13545874	     18.38648134	      6.73983719	   -109.76862126	     15.36621508
      1.65000000	     -0.00000000	     -0.30998483	     46.16776574	     95.93121037	     52.09897611	     10.87799781	     12.91809667	   -120.66326257	     19.54204057	      9.69571658	   -112.96256363	     16.64816627
      1.66000000	     -0.00000000	     -0.31956043	     45.38151916	     97.50574655	     52.88726571	     11.45227662	     15.11127066	   -122.55876268	     20.28985811	     11.93103479	   -115.04018615	     17.30459708
      1.67000000	     -0.00000000	     -0.32932985	     44.59101636	     99.09253932	     53.68355567	     11.42001512	     16.08767708	   -122.92360675	     20.04424084	     12.87946130	   -115.42182836	     17.03137100
      1.68000000	     -0.00000000	     -0.33930868	     43.79524631	    100.69390573	     54.48915204	     11.39626176	     16.80947556	   -123.18427718	     19.72719968	     13.59815349	   -115.81075370	     16.73765692
      1.69000000	     -0.00000000	     -0.34855678	     43.06789292	    102.16131220	     55.22920511	     11.45696157	     17.90405406	   -123.73440624	     19.65624010	     14.61947379	   -116.52878807	     16.59469642
      1.70000000	     -0.00000000	     -0.35855817	     42.29189274	    103.73101585	     56.02290860	     11.44127762	     18.88127410	   -124.09760517	     19.41315711	     15.21795615	   -116.90191528	     16.16374175
      1.71000000	     -0.00000000	     -0.36832409	     41.54443852	    105.24728322	     56.79172174	     11.41506617	     19.51663879	   -124.01560728	     18.92304499	     16.32081452	   -117.06861285	     16.03537396
      1.72000000	     -0.00000000	     -0.37833269	     40.78861543	    106.78510601	     57.57372145	     11.42984350	     20.58694285	   -124.31455848	     18.77433005	     17.41256670	   -117.33539092	     15.90624733
      1.73000000	     -0.00000000	     -0.38832353	     40.04413323	    108.30465740	     58.34879063	     11.41874192	     21.47295155	   -124.68526742	     18.41249281	     18.07821113	   -117.32386609	     15.26683574
      1.74000000	      0.00000000	     -0.39831914	     39.30902343	    109.81008092	     59.11910436	     11.42525974	     22.58322154	   -124.73424414	     18.23850083	     19.22320038	   -117.45734219	     15.18401342
      1.75000000	     -0.00000000	     -0.40856139	     38.56561794	    111.33791139	     59.90352933	     11.45811916	     23.53334542	   -125.25240750	     17.98257854	     20.07833964	   -117.91084235	     14.78648440
      1.76000000	     -0.00000000	     -0.41856154	     37.84918175	    112.81585188	     60.66503362	     11.45561075	     24.44786590	   -125.60450249	     17.64088150	     20.96630972	   -118.22117399	     14.41807538
      1.77000000	     -0.00000000	     -0.42931963	     37.08860368	    114.39126364	     61.47986732	     11.40148117	     25.50259095	   -125.74476892	     17.17803258	     21.88934603	   -118.06575325	     14.02603291
      1.78000000	     -0.00000000	     -0.43932505	     36.39052829	    115.84348462	     62.23401291	     11.43061256	     26.56425875	   -125.93661344	     16.96159667	     23.08403516	   -118.15946170	     13.99421121
      1.79000000	      0.00000000	     -0.44954483	     35.68660722	    117.31444814	     63.00105536	     11.44907785	     27.48073267	   -126.22896351	     16.53409645	     23.99454153	   -118.46462809	     13.63276226
      1.80000000	     -0.00000000	     -0.46030774	     34.95512128	    118.85061142	     63.80573270	     11.39680103	     28.29948855	   -126.44242652	     16.04660264	     24.42357917	   -118.26820634	     12.66623190
      1.81000000	     -0.00000000	     -0.47055671	     34.26788001	    120.30153796	     64.56941797	     11.45212208	     29.25744854	   -126.29151275	     15.63540453	     25.49431668	   -118.43332765	     12.43859017
      1.82000000	     -0.00000000	     -0.48130690	     33.55675236	    121.81145479	     65.36820716	     11.40488680	     30.18243539	   -126.17581749	     15.15487503	     26.41814915	   -118.22434301	     12.05051872
      1.83000000	     -0.00000000	     -0.49131212	     32.90384427	    123.20614056	     66.10998483	     11.41808334	     31.24098159	   -126.54289164	     14.68044738	     27.49558882	   -118.35511267	     11.59398776
      1.84000000	      0.00000000	     -0.50231470	     32.19583558	    124.72850112	     66.92433670	     11.42514338	     32.20588968	   -126.67047262	     14.29500182	     28.45878487	   -118.27046027	     11.21375061
      1.85000000	     -0.00000000	     -0.51231867	     31.56123233	    126.10273075	     67.66396308	     11.43830429	     33.15718551	   -126.85226989	     13.89825094	     29.43496464	   -118.17215701	     10.84310458
      1.86000000	     -0.00000000	     -0.52330053	     30.87474545	    127.60075768	     68.47550312	     11.40317021	     33.92395982	   -127.04514960	     13.16389516	     30.09958403	   -118.29037458	     10.12074738
      1.87000000	     -0.00000000	     -0.53354535	     30.24406433	    128.98863436	     69.23269869	     11.45338431	     34.93997326	   -127.26364132	     12.78409754	     31.05643773	   -118.41132793	      9.69588629
      1.88000000	     -0.00000000	     -0.54430347	     29.59211194	    130.43638972	     70.02850167	     11.39757855	     35.54777844	   -127.39128540	     12.20715847	     31.62715583	   -118.45517309	      8.81802891
      1.89000000	     -0.00000000	     -0.55454065	     28.98180683	    131.80513082	     70.78693766	     11.44256771	     36.53510498	   -127.58117388	     11.69490642	     32.06522367	   -118.37880945	      8.05304722
      1.90000000	     -0.00000000	     -0.56530587	     28.35095316	    133.23537702	     71.58633018	     11.40826682	     37.39410212	   -127.60485059	     11.16019707	     32.76750195	   -118.13110160	      7.27791040
      1.91000000	     -0.00000000	     -0.57529597	     27.77590530	    134.55452175	     72.33042705	     11.43229489	     38.19690489	   -127.69506758	     10.68601490	     33.67789013	   -118.21057551	      6.85629776
      1.92000000	     -0.00000000	     -0.58554475	     27.19677772	    135.89990211	     73.09667984	     11.46978102	     39.16766600	   -127.86136668	     10.15578404	     34.35353088	   -118.24551572	      6.23762514
      1.93000000	     -0.00000000	     -0.59629695	     26.60151631	    137.30293647	     73.90445279	     11.41648674	     39.78867819	   -127.88933428	      9.47728258	     34.77171072	   -118.17958450	      5.38835716
      1.94000000	     -0.00000000	     -0.60628439	     26.06047255	    138.59859707	     74.65906963	     11.42447211	     40.54894736	   -127.93898258	      8.84559006	     35.55381591	   -118.23485345	      4.75533570
      1.95000000	     -0.00000000	     -0.61653788	     25.51760049	    139.92130499	     75.43890548	     11.45306168	     41.33770042	   -128.10003536	      8.31740710	     36.12607335	   -118.26966818	      3.91769337
      1.96000000	     -0.00000000	     -0.62652997	     25.00158939	    141.20310850	     76.20469788	     11.46175462	     42.10055209	   -128.14470826	      7.68094593	     36.75244796	   -118.23470138	      3.30486824
